Coordinates
version=1
nRows=29
nColumns=18
inDegrees=yes

Units are S.I. units (second, meters, Newtons, ...)
Angles are in degrees.

endheader
time	ground_thorax_rot_x	ground_thorax_rot_y	ground_thorax_rot_z	ground_thorax_tx	ground_thorax_ty	ground_thorax_tz	clav_prot	clav_elev	scapula_abduction	scapula_elevation	scapula_upward_rot	scapula_winging	plane_elv	shoulder_elv	axial_rot	elbow_flexion	pro_sup
      3.33000000	      1.60311605	     -5.75439429	     -9.78193208	     -0.00423131	      0.00403036	     -0.00078352	    -19.21233487	     -4.36656754	     -6.98499009	     -3.72252376	     12.37081376	      5.26196625	    -24.50338579	     17.33016990	     43.87211746	      0.00000000	     34.32000000
      3.34000000	      1.51384386	     -5.65297081	     -9.72954947	     -0.00423131	      0.00403036	     -0.00078352	    -19.20076048	     -4.40361683	     -7.04612261	     -3.70820674	     12.21284746	      5.31168779	    -24.38729009	     17.39052479	     43.26082419	      0.00000000	     34.32000000
      3.35000000	      1.45268565	     -5.52835413	     -9.68477934	     -0.00423131	      0.00403036	     -0.00078352	    -19.23879746	     -4.41633208	     -7.09214574	     -3.72825658	     12.24359946	      5.31328896	    -24.98492253	     17.27261902	     43.74433946	      0.00000000	     34.32000000
      3.36000000	      1.59768816	     -5.57758991	     -9.69446292	     -0.00423131	      0.00403036	     -0.00078352	    -19.20272991	     -4.28462331	     -7.13379220	     -3.59080976	     12.11534631	      5.30094923	    -23.31784893	     17.63926521	     40.71112560	      0.00000000	     34.32000000
      3.37000000	      1.65662223	     -5.48429952	     -9.61191706	     -0.00423131	      0.00403036	     -0.00078352	    -19.24554780	     -4.27468420	     -7.12790486	     -3.62455594	     12.26130248	      5.26690345	    -24.10497213	     17.63771706	     40.78670785	      0.00000000	     34.32000000
      3.38000000	      1.40098614	     -5.83768926	     -9.66728660	     -0.00423131	      0.00403036	     -0.00078352	    -18.82538748	     -4.53951705	     -6.51936260	     -3.71584869	     11.92662268	      5.36874084	    -23.47837878	     17.95576918	     39.34153340	      0.00000000	     34.32000000
      3.39000000	      1.47792452	     -5.56482128	     -9.69994327	     -0.00423131	      0.00403036	     -0.00078352	    -19.16693622	     -4.32890492	     -6.84828823	     -3.72194769	     12.48645931	      5.21457086	    -24.69819765	     17.29447157	     41.00237331	      0.00000000	     34.32000000
      3.40000000	      1.45594501	     -5.43179215	     -9.74186706	     -0.00423131	      0.00403036	     -0.00078352	    -19.28809909	     -4.27183985	     -7.01108083	     -3.71390487	     12.59629471	      5.18679561	    -24.75018218	     17.12231426	     41.87123085	      0.00000000	     34.32000000
      3.41000000	      1.44453908	     -5.31855901	     -9.72106660	     -0.00423131	      0.00403036	     -0.00078352	    -19.30328002	     -4.18541542	     -7.01549297	     -3.66833506	     12.67123916	      5.14383014	    -24.80685895	     16.98123744	     42.15200608	      0.00000000	     34.32000000
      3.42000000	      1.54583591	     -5.42107294	     -9.66011372	     -0.00423131	      0.00403036	     -0.00078352	    -19.12332485	     -3.98590963	     -6.64075392	     -3.55550005	     12.85886696	      5.01057851	    -25.01272940	     16.81294423	     43.44009101	      0.00000000	     34.32000000
      3.43000000	      1.66934477	     -5.58665970	     -9.62490066	     -0.00423131	      0.00403036	     -0.00078352	    -18.91584472	     -3.84572587	     -6.20076523	     -3.48755287	     13.04972210	      4.88956722	    -25.68338232	     16.30574143	     49.72271985	      0.00000000	     34.32000000
      3.44000000	      1.59259818	     -5.37143078	     -9.67815289	     -0.00423131	      0.00403036	     -0.00078352	    -19.10720699	     -4.01326081	     -6.52347383	     -3.61318009	     13.00101560	      4.97975090	    -25.81736222	     16.28298893	     49.74488545	      0.00000000	     34.32000000
      3.45000000	      1.66656925	     -5.38687931	     -9.63564060	     -0.00423131	      0.00403036	     -0.00078352	    -19.04976729	     -3.95078078	     -6.39090004	     -3.58380931	     13.08231786	      4.93191769	    -25.79869766	     16.22219188	     50.06420365	      0.00000000	     34.32000000
      3.46000000	      1.61728126	     -5.36645702	     -9.63622444	     -0.00423131	      0.00403036	     -0.00078352	    -19.04510329	     -3.94206542	     -6.38865609	     -3.57512943	     13.07586087	      4.93045034	    -25.76025881	     16.11538324	     50.08261396	      0.00000000	     34.32000000
      3.47000000	      1.64220217	     -5.38924770	     -9.63555471	     -0.00423131	      0.00403036	     -0.00078352	    -19.10079723	     -3.80817235	     -6.44301349	     -3.51025544	     13.20707894	      4.86581987	    -25.97825833	     15.62950370	     52.96872419	      0.00000000	     34.32000000
      3.48000000	      1.59079037	     -5.30057448	     -9.68953715	     -0.00423131	      0.00403036	     -0.00078352	    -19.14953278	     -3.94647024	     -6.70448739	     -3.52272404	     12.84419479	      5.00618708	    -23.85791026	     16.43840976	     44.68441620	      0.00000000	     34.32000000
      3.49000000	      1.57029183	     -5.22678971	     -9.67749385	     -0.00423131	      0.00403036	     -0.00078352	    -19.13847464	     -3.94989950	     -6.67942005	     -3.52714941	     12.85307955	      5.00375784	    -23.85718570	     16.41787079	     44.69953048	      0.00000000	     34.32000000
      3.50000000	      1.40210230	     -5.23257592	     -9.65804416	     -0.00423131	      0.00403036	     -0.00078352	    -19.02840304	     -4.11939867	     -6.50382675	     -3.62426151	     12.75155508	      5.06351306	    -24.28995933	     16.47498721	     44.86655081	      0.00000000	     34.32000000
      3.51000000	      1.43030902	     -5.24922676	     -9.62109148	     -0.00423131	      0.00403036	     -0.00078352	    -18.98521036	     -4.06383487	     -6.31356124	     -3.63795170	     12.97280514	      4.98360923	    -25.48383564	     16.20421247	     47.59996719	      0.00000000	     34.32000000
      3.52000000	      1.64073961	     -5.31211298	     -9.65836556	     -0.00423131	      0.00403036	     -0.00078352	    -18.97176010	     -3.80990805	     -6.25390087	     -3.48761399	     13.14238670	      4.86381997	    -24.42057240	     16.26030477	     45.40971572	      0.00000000	     34.32000000
      3.53000000	      1.52893451	     -5.43675393	     -9.58372613	     -0.00423131	      0.00403036	     -0.00078352	    -18.76962938	     -3.80098274	     -6.03335653	     -3.40977714	     12.91478083	      4.88864934	    -24.09070278	     16.43288414	     44.74586988	      0.00000000	     34.32000000
      3.54000000	      1.49999791	     -5.00897569	     -9.70083436	     -0.00423131	      0.00403036	     -0.00078352	    -19.19284303	     -3.90017383	     -6.78829830	     -3.49134444	     12.85073497	      4.99772451	    -23.79630410	     16.22816581	     44.66916408	      0.00000000	     34.32000000
      3.55000000	      1.44860929	     -5.07712912	     -9.66053264	     -0.00423131	      0.00403036	     -0.00078352	    -19.15654198	     -3.86260049	     -6.64318796	     -3.50211259	     13.00727856	      4.94093600	    -24.58983545	     15.93770756	     46.69546381	      0.00000000	     34.32000000
      3.56000000	      1.43769515	     -5.05957994	     -9.63923109	     -0.00423131	      0.00403036	     -0.00078352	    -19.16536641	     -3.85799191	     -6.64623171	     -3.50530094	     13.03092970	      4.93511356	    -24.57169417	     15.97142895	     46.71474294	      0.00000000	     34.32000000
      3.57000000	      1.65475276	     -5.10302643	     -9.61061450	     -0.00423131	      0.00403036	     -0.00078352	    -19.15296853	     -3.64631394	     -6.50329040	     -3.42151945	     13.32964043	      4.79516208	    -25.44016049	     15.48963619	     53.14017425	      0.00000000	     34.32000000
      3.58000000	      1.50456388	     -5.03285193	     -9.69343909	     -0.00423131	      0.00403036	     -0.00078352	    -19.12371558	     -3.90935098	     -6.61017701	     -3.51965755	     12.94508099	      4.96590471	    -24.07047483	     16.23308062	     46.73260766	      0.00000000	     34.32000000
      3.59000000	      1.53883703	     -4.86888285	     -9.62094742	     -0.00423131	      0.00403036	     -0.00078352	    -19.24179364	     -3.78023286	     -6.84663949	     -3.42827703	     12.94949219	      4.94452293	    -23.79602450	     16.25318180	     45.31071033	      0.00000000	     34.32000000
      3.60000000	      1.43629157	     -4.87013676	     -9.61176539	     -0.00423131	      0.00403036	     -0.00078352	    -19.13437713	     -3.86362583	     -6.77034388	     -3.42552147	     12.72011740	      5.01239006	    -23.33020461	     16.40240141	     44.42018480	      0.00000000	     34.32000000
      3.61000000	      1.40676589	     -4.80572311	     -9.56978017	     -0.00423131	      0.00403036	     -0.00078352	    -19.15676724	     -3.80224478	     -6.70675219	     -3.43392456	     12.92435802	      4.94524296	    -24.37262811	     16.18218623	     45.73671385	      0.00000000	     34.32000000
